<svg xmlns="http://www.w3.org/2000/svg" width="162.5" height="24" viewBox="0 0 162.5 24"><path fill="#4F5252" d="M158.364 1.777h.02l2.77 2.835h.143V1.537h-2.933zM161.3 7.16l-.003.04-2.9 3.174h-.033v.227h2.894l.17-3.44zM150.722 10.438h-.337v.162h4.685v-.227h-.02V6h.02v-.233h-.008v-3.99h.008v-.24h-4.724v.162h.33l1.454.874v6.988z"/><path fill="#89C2E2" d="M87.312 10.476l-8.42-8.835h-.01l-.116-.09h-4.86v.154h.395l8.425 8.835h.005l.12.09h4.858v-.154z"/><path fill="#4F5252" d="M19.572 1.537h6.39V1.7h-.29l-1.422.862v7.026l1.395.85h.318v.163h-6.38v-.162h.32l1.408-.876V2.575L19.89 1.7h-.318zM36.283 7.266l-.266-.026c-.718-.078-1.3-.16-1.75-.25a6.193 6.193 0 0 1-1.134-.324 3.655 3.655 0 0 1-.808-.45c-.328-.252-.58-.54-.76-.867a2.148 2.148 0 0 1-.265-1.037c0-.536.17-1.034.51-1.492.34-.458.804-.822 1.394-1.093a4.573 4.573 0 0 1 1.924-.405c.943 0 1.918.25 2.926.746.35.177.6.266.753.266.31 0 .81-.27 1.492-.81l.226-.17h.156v2.933h-.143a14.765 14.765 0 0 0-.718-.72 6.085 6.085 0 0 0-.6-.487 8.467 8.467 0 0 0-1.35-.81 7.492 7.492 0 0 0-1.394-.507 5.65 5.65 0 0 0-1.376-.175c-.424 0-.804.054-1.14.162-.334.108-.596.26-.784.457a.934.934 0 0 0-.282.66c0 .237.106.453.318.648.156.155.383.285.68.39.157.055.432.118.825.187a19.654 19.654 0 0 0 1.488.198l.166.02c.056.006.097.012.123.016l.506.07c.94.122 1.66.26 2.16.413.503.153.94.372 1.318.658.75.558 1.123 1.27 1.123 2.14 0 .38-.075.753-.227 1.117a2.9 2.9 0 0 1-.63.947c-.332.333-.75.586-1.255.76s-1.08.26-1.728.26a6.32 6.32 0 0 1-1.048-.083 6.35 6.35 0 0 1-1.006-.257 10.705 10.705 0 0 1-1.138-.473c-.463-.212-.78-.318-.954-.318-.134 0-.295.053-.483.16a11.778 11.778 0 0 0-.993.667 7.23 7.23 0 0 0-.146.106l-.253.18h-.187v-3.32h.2c.546.605 1.042 1.07 1.487 1.395.472.355.963.655 1.476.9.512.244 1.028.43 1.548.557.52.128 1.022.192 1.51.192.68 0 1.226-.136 1.64-.407.412-.27.62-.626.62-1.067 0-.32-.116-.59-.345-.81-.182-.17-.43-.317-.747-.442-.186-.065-.49-.132-.912-.202-.42-.07-.914-.13-1.48-.18-.083 0-.172-.01-.267-.026M62.527 1.537h6.39V1.7h-.29l-1.42.862v7.026l1.394.85h.318v.163H62.54v-.162h.318l1.41-.876V2.575L62.844 1.7h-.318zM102.73 7.227l.227.078a7.054 7.054 0 0 1-.445.957c-.14.24-.33.487-.567.743-1.056 1.133-2.49 1.7-4.302 1.7-.99 0-1.954-.18-2.89-.54-.938-.358-1.724-.855-2.358-1.49-.736-.737-1.103-1.595-1.103-2.577 0-1.254.633-2.38 1.9-3.374 1.133-.895 2.482-1.343 4.048-1.343.506 0 .965.053 1.378.157s.858.28 1.334.532c.316.177.557.265.72.265.156 0 .352-.06.585-.178a7.16 7.16 0 0 0 1.018-.672l.136-.09h.145l.162 3.36h-.15a13.59 13.59 0 0 0-1.018-1.207 6.35 6.35 0 0 0-1.925-1.333c-.75-.344-1.456-.516-2.118-.516-.337 0-.664.062-.98.187a2.296 2.296 0 0 0-.81.54c-.728.752-1.09 1.913-1.09 3.483 0 .342.027.704.087 1.087.058.383.138.732.24 1.048.1.315.217.583.347.804.21.34.453.625.733.852.28.227.6.4.957.52.357.118.745.178 1.165.178a4.88 4.88 0 0 0 2.55-.727 4.997 4.997 0 0 0 1.584-1.528c.136-.224.282-.53.44-.918M123.802 1.537h6.39V1.7h-.292l-1.42.862v7.026l1.395.85h.317v.163h-6.378v-.162h.32l1.407-.876V2.575l-1.42-.876h-.318zM13.946 4.304a4.476 4.476 0 0 0-1.207-1.466 5.645 5.645 0 0 0-1.82-.964 7.248 7.248 0 0 0-2.25-.337h-.125v.246c.32.023.592.068.807.14.32.106.604.293.85.56.346.37.596.846.75 1.432.153.586.23 1.352.23 2.3 0 .964-.104 1.75-.31 2.358-.21.608-.53 1.055-.962 1.343-.362.24-.82.375-1.365.414v.26c.8-.013 1.55-.11 2.24-.31.74-.215 1.378-.52 1.912-.915a4.195 4.195 0 0 0 1.24-1.428 3.813 3.813 0 0 0 .437-1.8c0-.662-.142-1.273-.428-1.833M1.658 10.438H1.34v.162h4.702v-.253h-.024V1.763h.024v-.227H1.288V1.7h.344l1.447.874v7zM158.423 7.368v-3.45h-.156v.038l-1.735 1.8V6h.022l1.693 1.368zM142.846 7.73l-.015.03-3.36-5.185 1.356-.876h.33v-.163h-6.785V1.7h.332l1.304.875 5.326 8.175h.28l1.373-2.76zM143.285 1.537V1.7h.305l1.337 1.702.01-.018.21.262.09-.183 1.487-1.764h.338v-.163zM114.595 9.575V1.903h-.003v-.367h-2.94v.227h.004V9.55l-1.46.888h-.37v.162h6.586v-.162h-.422zM110.67 1.537h-3.075v4.028h.168v-.33l2.908-3.464zM115.573 1.537v.24l2.902 3.484v.32h.156V1.536zM49.4 1.537h-3.08v4.028h.17v-.33l2.91-3.467zM54.3 1.537v.243l2.9 3.48v.32h.156V1.536zM53.32 9.575V1.536h-2.94v.227h.002V9.55l-1.46.888h-.37v.162h6.586v-.162h-.422z"/><g fill="#4F5252"><path d="M3.56 22.43c-.164.083-.49.17-.91.17-.97 0-1.702-.62-1.702-1.75 0-1.077.73-1.81 1.8-1.81.428 0 .7.094.817.154l-.107.363a1.614 1.614 0 0 0-.695-.143c-.808 0-1.344.516-1.344 1.42 0 .844.485 1.386 1.323 1.386.27 0 .547-.056.726-.143l.09.354zM9.2 20.784c0 1.187-.72 1.815-1.6 1.815-.91 0-1.548-.707-1.548-1.75 0-1.094.68-1.81 1.6-1.81.94 0 1.55.722 1.55 1.744zm-2.673.057c0 .737.4 1.397 1.1 1.397.705 0 1.103-.65 1.103-1.432 0-.685-.357-1.4-1.1-1.4-.734 0-1.103.68-1.103 1.436zM11.913 22.543v-3.445h.485l1.104 1.743c.256.404.455.768.62 1.12l.01-.005c-.042-.46-.052-.88-.052-1.416v-1.442h.42v3.445h-.45l-1.095-1.748c-.24-.384-.47-.777-.644-1.15l-.014.005c.025.435.036.85.036 1.42v1.474h-.42zM18.064 19.476h-1.048v-.378h2.55v.378h-1.053v3.067h-.45v-3.067zM22.09 19.144a4.64 4.64 0 0 1 .855-.07c.476 0 .782.086.997.28.174.153.27.39.27.654 0 .455-.285.756-.648.88v.015c.266.092.424.337.506.695.112.48.194.812.266.945h-.46c-.056-.103-.133-.394-.23-.823-.102-.476-.286-.654-.69-.67h-.42v1.493h-.443v-3.4zm.445 1.57h.455c.476 0 .777-.262.777-.655 0-.445-.322-.64-.792-.645-.215 0-.368.02-.44.04v1.258zM27.452 21.46l-.358 1.083h-.46l1.17-3.445h.537l1.177 3.445h-.476l-.367-1.084h-1.22zm1.13-.35l-.338-.99c-.077-.225-.127-.43-.18-.63h-.01c-.05.205-.106.415-.173.625l-.336.996h1.037zM34.462 22.43c-.164.083-.49.17-.91.17-.97 0-1.702-.62-1.702-1.75 0-1.077.73-1.81 1.8-1.81.428 0 .7.094.817.154l-.107.363a1.614 1.614 0 0 0-.695-.143c-.808 0-1.344.516-1.344 1.42 0 .844.487 1.386 1.325 1.386.27 0 .547-.056.726-.143l.092.354zM37.743 19.476h-1.048v-.378h2.55v.378h-1.053v3.067h-.45v-3.067zM42.213 19.098v3.445h-.444v-3.445h.443zM45.133 22.543v-3.445h.485l1.104 1.743c.256.404.455.768.62 1.12l.01-.005c-.042-.46-.052-.88-.052-1.416v-1.442h.42v3.445h-.45l-1.095-1.748c-.24-.384-.47-.777-.644-1.15l-.014.005c.025.435.036.85.036 1.42v1.474h-.42zM53.252 22.39c-.2.07-.593.19-1.058.19-.52 0-.95-.134-1.288-.456-.296-.286-.48-.746-.48-1.283.005-1.026.71-1.778 1.866-1.778.4 0 .71.087.86.16l-.108.36a1.8 1.8 0 0 0-.762-.146c-.838 0-1.385.52-1.385 1.385 0 .875.526 1.392 1.33 1.392.29 0 .49-.04.592-.092v-1.028h-.7v-.357h1.134v1.655z"/></g><path fill="#4F5252" d="M58.39 20.652c0-.266.215-.48.486-.48s.485.215.485.48a.485.485 0 0 1-.97 0z"/><g fill="#4F5252"><path d="M65.285 21.03c-.025-.48-.056-1.06-.05-1.488h-.016c-.12.404-.262.84-.436 1.31l-.608 1.67h-.337l-.558-1.64a14.93 14.93 0 0 1-.398-1.34h-.01c-.01.43-.036 1.008-.066 1.523l-.092 1.478h-.426l.24-3.445h.567l.588 1.666c.143.425.26.803.348 1.16h.015c.087-.347.21-.726.363-1.16l.614-1.666h.567l.216 3.445h-.435l-.085-1.513zM69.187 21.46l-.358 1.083h-.46l1.17-3.445h.536l1.176 3.445h-.476l-.368-1.084h-1.22zm1.13-.35l-.338-.99c-.078-.225-.128-.43-.18-.63h-.01c-.05.205-.107.415-.174.625l-.337.996h1.036zM73.893 19.144a4.64 4.64 0 0 1 .854-.07c.476 0 .782.086.997.28.174.153.27.39.27.654 0 .455-.285.756-.648.88v.015c.266.092.424.337.506.695.112.48.194.812.266.945h-.46c-.056-.103-.133-.394-.23-.823-.102-.476-.286-.654-.69-.67h-.42v1.493h-.443v-3.4zm.444 1.57h.455c.476 0 .777-.262.777-.655 0-.445-.323-.64-.793-.645-.215 0-.368.02-.44.04v1.258zM78.783 19.098h.444v1.66h.016c.092-.132.184-.255.27-.367l1.054-1.292h.552L79.87 20.56l1.345 1.983h-.527l-1.134-1.692-.327.38v1.313h-.445v-3.445zM85.478 20.928h-1.34v1.242h1.493v.373h-1.937v-3.445h1.86v.373h-1.416v1.09h1.34v.368zM89.003 19.476h-1.048v-.378h2.55v.378h-1.053v3.067h-.45v-3.067zM93.47 19.098v3.445h-.445v-3.445h.444zM96.39 22.543v-3.445h.484l1.104 1.743c.255.404.455.768.618 1.12l.01-.005c-.04-.46-.05-.88-.05-1.416v-1.442h.418v3.445h-.45l-1.093-1.748a11.11 11.11 0 0 1-.644-1.15l-.016.005c.026.435.036.85.036 1.42v1.474h-.417zM104.508 22.39c-.2.07-.593.19-1.058.19-.52 0-.95-.134-1.29-.456-.295-.286-.48-.746-.48-1.283.007-1.026.712-1.778 1.867-1.778.398 0 .71.087.858.16l-.107.36a1.8 1.8 0 0 0-.76-.146c-.84 0-1.387.52-1.387 1.385 0 .875.527 1.392 1.33 1.392.29 0 .49-.04.593-.092v-1.028h-.7v-.357h1.135v1.655z"/></g><path fill="#4F5252" d="M109.36 20.652c0-.266.214-.48.484-.48s.485.215.485.48a.486.486 0 0 1-.97 0z"/><g fill="#4F5252"><path d="M115.758 22.43c-.163.083-.49.17-.91.17-.97 0-1.702-.62-1.702-1.75 0-1.077.73-1.81 1.8-1.81.43 0 .7.094.817.154l-.106.363a1.618 1.618 0 0 0-.695-.143c-.808 0-1.345.516-1.345 1.42 0 .844.485 1.386 1.324 1.386.272 0 .548-.056.727-.143l.09.354zM121.4 20.784c0 1.187-.722 1.815-1.602 1.815-.91 0-1.55-.707-1.55-1.75 0-1.094.682-1.81 1.602-1.81.94 0 1.55.722 1.55 1.744zm-2.674.057c0 .737.4 1.397 1.1 1.397.705 0 1.104-.65 1.104-1.432 0-.685-.357-1.4-1.1-1.4-.736 0-1.104.68-1.104 1.436zM124.11 22.543v-3.445h.486l1.104 1.743c.255.404.455.768.618 1.12l.01-.005c-.04-.46-.05-.88-.05-1.416v-1.442h.418v3.445h-.45l-1.093-1.748a11.11 11.11 0 0 1-.645-1.15l-.016.005c.026.435.036.85.036 1.42v1.474h-.417zM129.552 22c.2.124.49.226.798.226.454 0 .72-.24.72-.587 0-.323-.184-.508-.648-.687-.562-.2-.91-.49-.91-.977 0-.536.445-.936 1.114-.936.353 0 .608.082.762.17l-.122.362a1.367 1.367 0 0 0-.654-.164c-.47 0-.65.28-.65.517 0 .322.21.48.686.664.583.225.88.506.88 1.012 0 .53-.395.997-1.207.997-.33 0-.694-.104-.878-.227l.11-.372zM134.72 19.098v2.04c0 .77.342 1.1.802 1.1.51 0 .838-.34.838-1.1v-2.04h.45v2.01c0 1.058-.557 1.492-1.304 1.492-.705 0-1.236-.404-1.236-1.473v-2.03h.45zM139.716 19.098h.444v3.072h1.473v.373h-1.917v-3.445zM144.36 19.476h-1.047v-.378h2.55v.378h-1.053v3.067h-.45v-3.067zM148.832 19.098v3.445h-.444v-3.445h.444zM151.752 22.543v-3.445h.485l1.104 1.743c.256.404.456.768.62 1.12l.01-.005c-.04-.46-.052-.88-.052-1.416v-1.442h.42v3.445h-.45l-1.094-1.748a11.11 11.11 0 0 1-.645-1.15l-.017.005c.026.435.036.85.036 1.42v1.474h-.418zM159.877 22.39c-.2.07-.593.19-1.058.19-.522 0-.952-.134-1.29-.456-.296-.286-.48-.746-.48-1.283.006-1.026.71-1.778 1.866-1.778.398 0 .71.087.858.16l-.107.36a1.8 1.8 0 0 0-.76-.146c-.84 0-1.387.52-1.387 1.385 0 .875.526 1.392 1.33 1.392.29 0 .49-.04.592-.092v-1.028h-.7v-.357h1.135v1.655z"/></g></svg>